<svg xmlns="http://www.w3.org/2000/svg" xmlns:xlink="http://www.w3.org/1999/xlink" id="processonSvg1000" viewBox="-1.0 43.0 964.0 490.5" width="964.0" height="490.5"><defs id="ProcessOnDefs1001"><marker id="ProcessOnMarker1052" markerUnits="userSpaceOnUse" orient="auto" markerWidth="16.23606797749979" markerHeight="10.550836550532098" viewBox="-1.0 -1.3763819204711736 16.23606797749979 10.550836550532098" refX="-1.0" refY="3.8990363547948754"><path id="ProcessOnPath1053" d="M12.0 3.8990363547948754L0.0 7.798072709589751V0.0Z" stroke="#323232" stroke-width="2.0" fill="#323232" transform="matrix(1.0,0.0,0.0,1.0,0.0,0.0)"/></marker><marker id="ProcessOnMarker1056" markerUnits="userSpaceOnUse" orient="auto" markerWidth="16.23606797749979" markerHeight="10.550836550532098" viewBox="-1.0 -1.3763819204711736 16.23606797749979 10.550836550532098" refX="-1.0" refY="3.8990363547948754"><path id="ProcessOnPath1057" d="M12.0 3.8990363547948754L0.0 7.798072709589751V0.0Z" stroke="#323232" stroke-width="2.0" fill="#323232" transform="matrix(1.0,0.0,0.0,1.0,0.0,0.0)"/></marker><marker id="ProcessOnMarker1060" markerUnits="userSpaceOnUse" orient="auto" markerWidth="16.23606797749979" markerHeight="10.550836550532098" viewBox="-1.0 -1.3763819204711736 16.23606797749979 10.550836550532098" refX="-1.0" refY="3.8990363547948754"><path id="ProcessOnPath1061" d="M12.0 3.8990363547948754L0.0 7.798072709589751V0.0Z" stroke="#323232" stroke-width="2.0" fill="#323232" transform="matrix(1.0,0.0,0.0,1.0,0.0,0.0)"/></marker><marker id="ProcessOnMarker1125" markerUnits="userSpaceOnUse" orient="auto" markerWidth="16.23606797749979" markerHeight="10.550836550532098" viewBox="-1.0 -1.3763819204711736 16.23606797749979 10.550836550532098" refX="-1.0" refY="3.8990363547948754"><path id="ProcessOnPath1126" d="M12.0 3.8990363547948754L0.0 7.798072709589751V0.0Z" stroke="#323232" stroke-width="2.0" fill="#323232" transform="matrix(1.0,0.0,0.0,1.0,0.0,0.0)"/></marker><marker id="ProcessOnMarker1132" markerUnits="userSpaceOnUse" orient="auto" markerWidth="16.23606797749979" markerHeight="10.550836550532098" viewBox="-1.0 -1.3763819204711736 16.23606797749979 10.550836550532098" refX="-1.0" refY="3.8990363547948754"><path id="ProcessOnPath1133" d="M12.0 3.8990363547948754L0.0 7.798072709589751V0.0Z" stroke="#323232" stroke-width="2.0" fill="#323232" transform="matrix(1.0,0.0,0.0,1.0,0.0,0.0)"/></marker><marker id="ProcessOnMarker1155" markerUnits="userSpaceOnUse" orient="auto" markerWidth="16.23606797749979" markerHeight="10.550836550532098" viewBox="-1.0 -1.3763819204711736 16.23606797749979 10.550836550532098" refX="-1.0" refY="3.8990363547948754"><path id="ProcessOnPath1156" d="M12.0 3.8990363547948754L0.0 7.798072709589751V0.0Z" stroke="#323232" stroke-width="2.0" fill="#323232" transform="matrix(1.0,0.0,0.0,1.0,0.0,0.0)"/></marker></defs><g id="ProcessOnG1002"><path id="ProcessOnPath1003" d="M-1.0 43.0H963.0V533.5H-1.0V43.0Z" fill="none"/><g id="ProcessOnG1004"><g id="ProcessOnG1005" transform="matrix(1.0,0.0,0.0,1.0,135.0,63.0)" opacity="1.0"><path id="ProcessOnPath1006" d="M0.0 0.0L211.0 0.0L211.0 50.0L0.0 50.0Z" stroke="#323232" stroke-width="2.0" stroke-dasharray="none" opacity="1.0" fill="#ffffff"/><g id="ProcessOnG1007" transform="matrix(1.0,0.0,0.0,1.0,10.0,16.875)"><text id="ProcessOnText1008" fill="#000000" font-size="13" x="0.0" y="13.325" font-family="微软雅黑" font-weight="normal" font-style="normal" text-decoration="none" family="微软雅黑" text-anchor="start" size="13">Acceptor Thread</text></g></g><g id="ProcessOnG1009" transform="matrix(1.0,0.0,0.0,1.0,19.0,81.0)" opacity="1.0"><path id="ProcessOnPath1010" d="M101.0 0.0Q92.0 0.0 92.0 9.0L92.0 110.0Q92.0 119.0 79.0 119.0Q92.0 119.0 92.0 128.0L92.0 229.0Q92.0 238.0 101.0 238.0" stroke="#323232" stroke-width="2.0" stroke-dasharray="none" opacity="1.0" fill="none"/><path id="ProcessOnPath1011" d="M0.0 0.0L101.0 0.0L101.0 238.0L0.0 238.0Z" stroke="none" stroke-width="0.0" stroke-dasharray="none" opacity="1.0" fill="none"/><g id="ProcessOnG1012" transform="matrix(1.0,0.0,0.0,1.0,0.0,110.875)"><text id="ProcessOnText1013" fill="#000000" font-size="13" x="72.0" y="13.325" font-family="微软雅黑" font-weight="normal" font-style="normal" text-decoration="none" family="微软雅黑" text-anchor="end" size="13">Server</text></g></g><g id="ProcessOnG1014" transform="matrix(1.0,0.0,0.0,1.0,253.0,69.0)" opacity="1.0"><path id="ProcessOnPath1015" d="M0.0 19.0C0.0 -6.333333333333333 84.0 -6.333333333333333 84.0 19.0C84.0 44.333333333333336 0.0 44.333333333333336 0.0 19.0Z" stroke="#323232" stroke-width="2.0" stroke-dasharray="none" opacity="1.0" fill="#ffffff"/><g id="ProcessOnG1016" transform="matrix(1.0,0.0,0.0,1.0,10.0,2.75)"><text id="ProcessOnText1017" fill="#000000" font-size="13" x="31.0" y="13.325" font-family="微软雅黑" font-weight="normal" font-style="normal" text-decoration="none" family="微软雅黑" text-anchor="middle" size="13">Eventbase </text><text id="ProcessOnText1018" fill="#000000" font-size="13" x="31.0" y="29.575" font-family="微软雅黑" font-weight="normal" font-style="normal" text-decoration="none" family="微软雅黑" text-anchor="middle" size="13">Loop</text></g></g><g id="ProcessOnG1019" transform="matrix(1.0,0.0,0.0,1.0,135.0,122.0)" opacity="1.0"><path id="ProcessOnPath1020" d="M0.0 0.0L211.0 0.0L211.0 50.0L0.0 50.0Z" stroke="#323232" stroke-width="2.0" stroke-dasharray="none" opacity="1.0" fill="#ffffff"/><g id="ProcessOnG1021" transform="matrix(1.0,0.0,0.0,1.0,10.0,16.875)"><text id="ProcessOnText1022" fill="#000000" font-size="13" x="0.0" y="13.325" font-family="微软雅黑" font-weight="normal" font-style="normal" text-decoration="none" family="微软雅黑" text-anchor="start" size="13">IO Thread 0</text></g></g><g id="ProcessOnG1023" transform="matrix(1.0,0.0,0.0,1.0,253.0,128.0)" opacity="1.0"><path id="ProcessOnPath1024" d="M0.0 19.0C0.0 -6.333333333333333 84.0 -6.333333333333333 84.0 19.0C84.0 44.333333333333336 0.0 44.333333333333336 0.0 19.0Z" stroke="#323232" stroke-width="2.0" stroke-dasharray="none" opacity="1.0" fill="#ffffff"/><g id="ProcessOnG1025" transform="matrix(1.0,0.0,0.0,1.0,10.0,2.75)"><text id="ProcessOnText1026" fill="#000000" font-size="13" x="31.0" y="13.325" font-family="微软雅黑" font-weight="normal" font-style="normal" text-decoration="none" family="微软雅黑" text-anchor="middle" size="13">Eventbase </text><text id="ProcessOnText1027" fill="#000000" font-size="13" x="31.0" y="29.575" font-family="微软雅黑" font-weight="normal" font-style="normal" text-decoration="none" family="微软雅黑" text-anchor="middle" size="13">Loop</text></g></g><g id="ProcessOnG1028" transform="matrix(1.0,0.0,0.0,1.0,135.0,180.0)" opacity="1.0"><path id="ProcessOnPath1029" d="M0.0 0.0L211.0 0.0L211.0 50.0L0.0 50.0Z" stroke="#323232" stroke-width="2.0" stroke-dasharray="none" opacity="1.0" fill="#ffffff"/><g id="ProcessOnG1030" transform="matrix(1.0,0.0,0.0,1.0,10.0,16.875)"><text id="ProcessOnText1031" fill="#000000" font-size="13" x="0.0" y="13.325" font-family="微软雅黑" font-weight="normal" font-style="normal" text-decoration="none" family="微软雅黑" text-anchor="start" size="13">IO Thread 1</text></g></g><g id="ProcessOnG1032" transform="matrix(1.0,0.0,0.0,1.0,253.0,186.0)" opacity="1.0"><path id="ProcessOnPath1033" d="M0.0 19.0C0.0 -6.333333333333333 84.0 -6.333333333333333 84.0 19.0C84.0 44.333333333333336 0.0 44.333333333333336 0.0 19.0Z" stroke="#323232" stroke-width="2.0" stroke-dasharray="none" opacity="1.0" fill="#ffffff"/><g id="ProcessOnG1034" transform="matrix(1.0,0.0,0.0,1.0,10.0,2.75)"><text id="ProcessOnText1035" fill="#000000" font-size="13" x="31.0" y="13.325" font-family="微软雅黑" font-weight="normal" font-style="normal" text-decoration="none" family="微软雅黑" text-anchor="middle" size="13">Eventbase </text><text id="ProcessOnText1036" fill="#000000" font-size="13" x="31.0" y="29.575" font-family="微软雅黑" font-weight="normal" font-style="normal" text-decoration="none" family="微软雅黑" text-anchor="middle" size="13">Loop</text></g></g><g id="ProcessOnG1037" transform="matrix(1.0,0.0,0.0,1.0,135.0,237.0)" opacity="1.0"><path id="ProcessOnPath1038" d="M0.0 0.0L211.0 0.0L211.0 50.0L0.0 50.0Z" stroke="#323232" stroke-width="2.0" stroke-dasharray="none" opacity="1.0" fill="#ffffff"/><g id="ProcessOnG1039" transform="matrix(1.0,0.0,0.0,1.0,10.0,16.875)"><text id="ProcessOnText1040" fill="#000000" font-size="13" x="94.5" y="13.325" font-family="微软雅黑" font-weight="normal" font-style="normal" text-decoration="none" family="微软雅黑" text-anchor="middle" size="13">...</text></g></g><g id="ProcessOnG1041" transform="matrix(1.0,0.0,0.0,1.0,135.0,295.0)" opacity="1.0"><path id="ProcessOnPath1042" d="M0.0 0.0L211.0 0.0L211.0 50.0L0.0 50.0Z" stroke="#323232" stroke-width="2.0" stroke-dasharray="none" opacity="1.0" fill="#ffffff"/><g id="ProcessOnG1043" transform="matrix(1.0,0.0,0.0,1.0,10.0,16.875)"><text id="ProcessOnText1044" fill="#000000" font-size="13" x="0.0" y="13.325" font-family="微软雅黑" font-weight="normal" font-style="normal" text-decoration="none" family="微软雅黑" text-anchor="start" size="13">IO Thread N</text></g></g><g id="ProcessOnG1045" transform="matrix(1.0,0.0,0.0,1.0,253.0,301.0)" opacity="1.0"><path id="ProcessOnPath1046" d="M0.0 19.0C0.0 -6.333333333333333 84.0 -6.333333333333333 84.0 19.0C84.0 44.333333333333336 0.0 44.333333333333336 0.0 19.0Z" stroke="#323232" stroke-width="2.0" stroke-dasharray="none" opacity="1.0" fill="#ffffff"/><g id="ProcessOnG1047" transform="matrix(1.0,0.0,0.0,1.0,10.0,2.75)"><text id="ProcessOnText1048" fill="#000000" font-size="13" x="31.0" y="13.325" font-family="微软雅黑" font-weight="normal" font-style="normal" text-decoration="none" family="微软雅黑" text-anchor="middle" size="13">Eventbase </text><text id="ProcessOnText1049" fill="#000000" font-size="13" x="31.0" y="29.575" font-family="微软雅黑" font-weight="normal" font-style="normal" text-decoration="none" family="微软雅黑" text-anchor="middle" size="13">Loop</text></g></g><g id="ProcessOnG1050"><path id="ProcessOnPath1051" d="M337.0 88.0L423.0 88.0L423.0 147.0L352.2360679774998 147.0" stroke="#323232" stroke-width="2.0" stroke-dasharray="none" fill="none" marker-end="url(#ProcessOnMarker1052)"/></g><g id="ProcessOnG1054"><path id="ProcessOnPath1055" d="M346.0 88.0L423.0 88.0L423.0 205.0L352.2360679774998 205.0" stroke="#323232" stroke-width="2.0" stroke-dasharray="none" fill="none" marker-end="url(#ProcessOnMarker1056)"/></g><g id="ProcessOnG1058"><path id="ProcessOnPath1059" d="M337.0 88.0L423.0 88.0L423.0 320.0L352.2360679774998 320.0" stroke="#323232" stroke-width="2.0" stroke-dasharray="none" fill="none" marker-end="url(#ProcessOnMarker1060)"/><g id="ProcessOnG1062" transform="matrix(1.0,0.0,0.0,1.0,423.0,188.2569660112501)"><path id="ProcessOnPath1063" d="M0 0H116.0V16.25H0Z" fill="#fff" transform="matrix(1.0,0.0,0.0,1.0,-58.0,0.0)"/><text id="ProcessOnText1064" fill="#000000" font-size="13" x="0.0" y="13.325" font-family="微软雅黑" font-weight="normal" font-style="normal" text-decoration="none" family="微软雅黑" text-anchor="middle" size="13">Accept new socket</text></g></g><g id="ProcessOnG1065" transform="matrix(1.0,0.0,0.0,1.0,477.5,270.0)" opacity="1.0"><path id="ProcessOnPath1066" d="M0.0 0.0L112.0 0.0L112.0 44.5L0.0 44.5Z" stroke="#323232" stroke-width="2.0" stroke-dasharray="none" opacity="1.0" fill="#ffffff"/><g id="ProcessOnG1067" transform="matrix(1.0,0.0,0.0,1.0,10.0,6.0)"><text id="ProcessOnText1068" fill="#000000" font-size="13" x="45.0" y="13.325" font-family="微软雅黑" font-weight="normal" font-style="normal" text-decoration="none" family="微软雅黑" text-anchor="middle" size="13">OutboundHan</text><text id="ProcessOnText1069" fill="#000000" font-size="13" x="45.0" y="29.575" font-family="微软雅黑" font-weight="normal" font-style="normal" text-decoration="none" family="微软雅黑" text-anchor="middle" size="13">lder</text></g></g><g id="ProcessOnG1070" transform="matrix(1.0,0.0,0.0,1.0,477.5,364.0)" opacity="1.0"><path id="ProcessOnPath1071" d="M0.0 0.0L112.0 0.0L112.0 55.5L0.0 55.5Z" stroke="#323232" stroke-width="2.0" stroke-dasharray="none" opacity="1.0" fill="#ffffff"/><g id="ProcessOnG1072" transform="matrix(1.0,0.0,0.0,1.0,10.0,11.5)"><text id="ProcessOnText1073" fill="#000000" font-size="13" x="45.0" y="13.325" font-family="微软雅黑" font-weight="normal" font-style="normal" text-decoration="none" family="微软雅黑" text-anchor="middle" size="13">InboundHanld</text><text id="ProcessOnText1074" fill="#000000" font-size="13" x="45.0" y="29.575" font-family="微软雅黑" font-weight="normal" font-style="normal" text-decoration="none" family="微软雅黑" text-anchor="middle" size="13">er</text></g></g><g id="ProcessOnG1075" transform="matrix(1.0,0.0,0.0,1.0,477.5,248.0)" opacity="1.0"><path id="ProcessOnPath1076" d="M0.0 0.0L56.0 0.0L56.0 22.0L0.0 22.0Z" stroke="#323232" stroke-width="2.0" stroke-dasharray="none" opacity="1.0" fill="#ffffff"/><g id="ProcessOnG1077" transform="matrix(1.0,0.0,0.0,1.0,10.0,2.875)"><text id="ProcessOnText1078" fill="#000000" font-size="13" x="17.0" y="13.325" font-family="微软雅黑" font-weight="normal" font-style="normal" text-decoration="none" family="微软雅黑" text-anchor="middle" size="13">Wout</text></g></g><g id="ProcessOnG1079" transform="matrix(1.0,0.0,0.0,1.0,533.5,248.0)" opacity="1.0"><path id="ProcessOnPath1080" d="M0.0 0.0L56.0 0.0L56.0 22.0L0.0 22.0Z" stroke="#323232" stroke-width="2.0" stroke-dasharray="none" opacity="1.0" fill="#ffffff"/><g id="ProcessOnG1081" transform="matrix(1.0,0.0,0.0,1.0,10.0,2.875)"><text id="ProcessOnText1082" fill="#000000" font-size="13" x="17.0" y="13.325" font-family="微软雅黑" font-weight="normal" font-style="normal" text-decoration="none" family="微软雅黑" text-anchor="middle" size="13">Win</text></g></g><g id="ProcessOnG1083" transform="matrix(1.0,0.0,0.0,1.0,533.5,419.5)" opacity="1.0"><path id="ProcessOnPath1084" d="M0.0 0.0L56.0 0.0L56.0 22.0L0.0 22.0Z" stroke="#323232" stroke-width="2.0" stroke-dasharray="none" opacity="1.0" fill="#ffffff"/><g id="ProcessOnG1085" transform="matrix(1.0,0.0,0.0,1.0,10.0,2.875)"><text id="ProcessOnText1086" fill="#000000" font-size="13" x="17.0" y="13.325" font-family="微软雅黑" font-weight="normal" font-style="normal" text-decoration="none" family="微软雅黑" text-anchor="middle" size="13">Rout</text></g></g><g id="ProcessOnG1087" transform="matrix(1.0,0.0,0.0,1.0,477.5,419.5)" opacity="1.0"><path id="ProcessOnPath1088" d="M0.0 0.0L56.0 0.0L56.0 22.0L0.0 22.0Z" stroke="#323232" stroke-width="2.0" stroke-dasharray="none" opacity="1.0" fill="#ffffff"/><g id="ProcessOnG1089" transform="matrix(1.0,0.0,0.0,1.0,10.0,2.875)"><text id="ProcessOnText1090" fill="#000000" font-size="13" x="17.0" y="13.325" font-family="微软雅黑" font-weight="normal" font-style="normal" text-decoration="none" family="微软雅黑" text-anchor="middle" size="13">Rin</text></g></g><g id="ProcessOnG1091" transform="matrix(1.0,0.0,0.0,1.0,637.0,248.0)" opacity="1.0"><path id="ProcessOnPath1092" d="M0.0 0.0L112.0 0.0L112.0 193.5L0.0 193.5Z" stroke="#323232" stroke-width="2.0" stroke-dasharray="none" opacity="1.0" fill="#ffffff"/><g id="ProcessOnG1093" transform="matrix(1.0,0.0,0.0,1.0,10.0,88.625)"><text id="ProcessOnText1094" fill="#000000" font-size="13" x="45.0" y="13.325" font-family="微软雅黑" font-weight="normal" font-style="normal" text-decoration="none" family="微软雅黑" text-anchor="middle" size="13">Handler</text></g></g><g id="ProcessOnG1095" transform="matrix(1.0,0.0,0.0,1.0,637.0,248.0)" opacity="1.0"><path id="ProcessOnPath1096" d="M0.0 0.0L56.0 0.0L56.0 22.0L0.0 22.0Z" stroke="#323232" stroke-width="2.0" stroke-dasharray="none" opacity="1.0" fill="#ffffff"/><g id="ProcessOnG1097" transform="matrix(1.0,0.0,0.0,1.0,10.0,2.875)"><text id="ProcessOnText1098" fill="#000000" font-size="13" x="17.0" y="13.325" font-family="微软雅黑" font-weight="normal" font-style="normal" text-decoration="none" family="微软雅黑" text-anchor="middle" size="13">Wout</text></g></g><g id="ProcessOnG1099" transform="matrix(1.0,0.0,0.0,1.0,693.0,248.0)" opacity="1.0"><path id="ProcessOnPath1100" d="M0.0 0.0L56.0 0.0L56.0 22.0L0.0 22.0Z" stroke="#323232" stroke-width="2.0" stroke-dasharray="none" opacity="1.0" fill="#ffffff"/><g id="ProcessOnG1101" transform="matrix(1.0,0.0,0.0,1.0,10.0,2.875)"><text id="ProcessOnText1102" fill="#000000" font-size="13" x="17.0" y="13.325" font-family="微软雅黑" font-weight="normal" font-style="normal" text-decoration="none" family="微软雅黑" text-anchor="middle" size="13">Win</text></g></g><g id="ProcessOnG1103" transform="matrix(1.0,0.0,0.0,1.0,693.0,419.5)" opacity="1.0"><path id="ProcessOnPath1104" d="M0.0 0.0L56.0 0.0L56.0 22.0L0.0 22.0Z" stroke="#323232" stroke-width="2.0" stroke-dasharray="none" opacity="1.0" fill="#ffffff"/><g id="ProcessOnG1105" transform="matrix(1.0,0.0,0.0,1.0,10.0,2.875)"><text id="ProcessOnText1106" fill="#000000" font-size="13" x="17.0" y="13.325" font-family="微软雅黑" font-weight="normal" font-style="normal" text-decoration="none" family="微软雅黑" text-anchor="middle" size="13">Rout</text></g></g><g id="ProcessOnG1107" transform="matrix(1.0,0.0,0.0,1.0,637.0,419.5)" opacity="1.0"><path id="ProcessOnPath1108" d="M0.0 0.0L56.0 0.0L56.0 22.0L0.0 22.0Z" stroke="#323232" stroke-width="2.0" stroke-dasharray="none" opacity="1.0" fill="#ffffff"/><g id="ProcessOnG1109" transform="matrix(1.0,0.0,0.0,1.0,10.0,2.875)"><text id="ProcessOnText1110" fill="#000000" font-size="13" x="17.0" y="13.325" font-family="微软雅黑" font-weight="normal" font-style="normal" text-decoration="none" family="微软雅黑" text-anchor="middle" size="13">Rin</text></g></g><g id="ProcessOnG1111" transform="matrix(1.0,0.0,0.0,1.0,605.5,473.5)" opacity="1.0"><path id="ProcessOnPath1112" d="M0.0 0.0L160.0 0.0L160.0 40.0L0.0 40.0Z" stroke="none" stroke-width="0.0" stroke-dasharray="none" opacity="1.0" fill="none"/><g id="ProcessOnG1113" transform="matrix(1.0,0.0,0.0,1.0,0.0,10.0)"><text id="ProcessOnText1114" fill="#000000" font-size="16" x="79.0" y="16.4" font-family="微软雅黑" font-weight="bold" font-style="normal" text-decoration="none" family="微软雅黑" text-anchor="middle" size="16">Pipeline</text></g></g><g id="ProcessOnG1115" transform="matrix(1.0,0.0,0.0,1.0,153.5,478.0)" opacity="1.0"><path id="ProcessOnPath1116" d="M0.0 0.0L202.5 0.0L202.5 31.0L0.0 31.0Z" stroke="none" stroke-width="0.0" stroke-dasharray="none" opacity="1.0" fill="none"/><g id="ProcessOnG1117" transform="matrix(1.0,0.0,0.0,1.0,0.0,4.875)"><text id="ProcessOnText1118" fill="#000000" font-size="17" x="100.25" y="17.425" font-family="微软雅黑" font-weight="bold" font-style="normal" text-decoration="none" family="微软雅黑" text-anchor="middle" size="17">IOThreadPoolExecutor</text></g></g><g id="ProcessOnG1119" transform="matrix(1.0,0.0,0.0,1.0,746.5,175.0)" opacity="1.0"><path id="ProcessOnPath1120" d="M0.0 0.0L165.0 0.0L165.0 27.0L0.0 27.0Z" stroke="#323232" stroke-width="2.0" stroke-dasharray="none" opacity="1.0" fill="#ffffff"/><g id="ProcessOnG1121" transform="matrix(1.0,0.0,0.0,1.0,10.0,5.375)"><text id="ProcessOnText1122" fill="#000000" font-size="13" x="71.5" y="13.325" font-family="微软雅黑" font-weight="normal" font-style="normal" text-decoration="none" family="微软雅黑" text-anchor="middle" size="13">pipeline-&gt;write("test");</text></g></g><g id="ProcessOnG1123"><path id="ProcessOnPath1124" d="M477.5 259.0L447.5 259.0L447.5 369.0L295.0 369.0L295.0 354.2360679774998" stroke="#323232" stroke-width="2.0" stroke-dasharray="none" fill="none" marker-end="url(#ProcessOnMarker1125)"/><g id="ProcessOnG1127" transform="matrix(1.0,0.0,0.0,1.0,433.86803398874986,360.875)"><path id="ProcessOnPath1128" d="M0 0H73.0V16.25H0Z" fill="#fff" transform="matrix(1.0,0.0,0.0,1.0,-36.5,0.0)"/><text id="ProcessOnText1129" fill="#000000" font-size="13" x="0.0" y="13.325" font-family="微软雅黑" font-weight="normal" font-style="normal" text-decoration="none" family="微软雅黑" text-anchor="middle" size="13">writeChain()</text></g></g><g id="ProcessOnG1130"><path id="ProcessOnPath1131" d="M253.0 320.0L223.0 320.0L223.0 430.5L462.2639320225002 430.5" stroke="#323232" stroke-width="2.0" stroke-dasharray="none" fill="none" marker-end="url(#ProcessOnMarker1132)"/><g id="ProcessOnG1134" transform="matrix(1.0,0.0,0.0,1.0,272.38196601125014,422.375)"><path id="ProcessOnPath1135" d="M0 0H110.0V16.25H0Z" fill="#fff" transform="matrix(1.0,0.0,0.0,1.0,-55.0,0.0)"/><text id="ProcessOnText1136" fill="#000000" font-size="13" x="0.0" y="13.325" font-family="微软雅黑" font-weight="normal" font-style="normal" text-decoration="none" family="微软雅黑" text-anchor="middle" size="13">readDataAvaliable</text></g></g><g id="ProcessOnG1137" transform="matrix(1.0,0.0,0.0,1.0,598.0,251.5)" opacity="1.0"><path id="ProcessOnPath1138" d="M0.0 10.0L10.0 0.0L10.0 6.6000000000000005L31.0 6.6000000000000005L31.0 13.4L10.0 13.4L10.0 20.0L0.0 10.0Z" stroke="#323232" stroke-width="2.0" stroke-dasharray="none" opacity="1.0" fill="#ffffff"/></g><g id="ProcessOnG1139" transform="matrix(1.0,0.0,0.0,1.0,758.0,251.5)" opacity="1.0"><path id="ProcessOnPath1140" d="M0.0 10.0L10.0 0.0L10.0 6.6000000000000005L31.0 6.6000000000000005L31.0 13.4L10.0 13.4L10.0 20.0L0.0 10.0Z" stroke="#323232" stroke-width="2.0" stroke-dasharray="none" opacity="1.0" fill="#ffffff"/></g><g id="ProcessOnG1141" transform="matrix(1.0,0.0,0.0,1.0,597.5,420.5)" opacity="1.0"><path id="ProcessOnPath1142" d="M0.0 6.6000000000000005L22.0 6.6000000000000005L22.0 0.0L32.0 10.0L22.0 20.0L22.0 13.4L0.0 13.4L0.0 6.6000000000000005Z" stroke="#323232" stroke-width="2.0" stroke-dasharray="none" opacity="1.0" fill="#ffffff"/></g><g id="ProcessOnG1143" transform="matrix(1.0,0.0,0.0,1.0,757.5,423.0)" opacity="1.0"><path id="ProcessOnPath1144" d="M0.0 6.6000000000000005L22.0 6.6000000000000005L22.0 0.0L32.0 10.0L22.0 20.0L22.0 13.4L0.0 13.4L0.0 6.6000000000000005Z" stroke="#323232" stroke-width="2.0" stroke-dasharray="none" opacity="1.0" fill="#ffffff"/></g><g id="ProcessOnG1145" transform="matrix(1.0,0.0,0.0,1.0,615.5,209.5)" opacity="1.0"><path id="ProcessOnPath1146" d="M0.0 0.0L160.0 0.0L160.0 40.0L0.0 40.0Z" stroke="none" stroke-width="0.0" stroke-dasharray="none" opacity="1.0" fill="none"/><g id="ProcessOnG1147" transform="matrix(1.0,0.0,0.0,1.0,0.0,11.875)"><text id="ProcessOnText1148" fill="#000000" font-size="13" x="79.0" y="13.325" font-family="微软雅黑" font-weight="normal" font-style="normal" text-decoration="none" family="微软雅黑" text-anchor="middle" size="13">Write operation dataflow</text></g></g><g id="ProcessOnG1149" transform="matrix(1.0,0.0,0.0,1.0,613.0,443.0)" opacity="1.0"><path id="ProcessOnPath1150" d="M0.0 0.0L160.0 0.0L160.0 40.0L0.0 40.0Z" stroke="none" stroke-width="0.0" stroke-dasharray="none" opacity="1.0" fill="none"/><g id="ProcessOnG1151" transform="matrix(1.0,0.0,0.0,1.0,0.0,11.875)"><text id="ProcessOnText1152" fill="#000000" font-size="13" x="79.0" y="13.325" font-family="微软雅黑" font-weight="normal" font-style="normal" text-decoration="none" family="微软雅黑" text-anchor="middle" size="13">Read operation data flow</text></g></g><g id="ProcessOnG1153"><path id="ProcessOnPath1154" d="M911.5 188.5L943.0 188.5L943.0 260.5L928.2360679774998 260.5" stroke="#323232" stroke-width="2.0" stroke-dasharray="none" fill="none" marker-end="url(#ProcessOnMarker1155)"/></g><g id="ProcessOnG1157" transform="matrix(1.0,0.0,0.0,1.0,801.0,249.5)" opacity="1.0"><path id="ProcessOnPath1158" d="M0.0 0.0L112.0 0.0L112.0 193.5L0.0 193.5Z" stroke="#323232" stroke-width="2.0" stroke-dasharray="none" opacity="1.0" fill="#ffffff"/><g id="ProcessOnG1159" transform="matrix(1.0,0.0,0.0,1.0,10.0,88.625)"><text id="ProcessOnText1160" fill="#000000" font-size="13" x="45.0" y="13.325" font-family="微软雅黑" font-weight="normal" font-style="normal" text-decoration="none" family="微软雅黑" text-anchor="middle" size="13">Handler</text></g></g><g id="ProcessOnG1161" transform="matrix(1.0,0.0,0.0,1.0,801.0,249.5)" opacity="1.0"><path id="ProcessOnPath1162" d="M0.0 0.0L56.0 0.0L56.0 22.0L0.0 22.0Z" stroke="#323232" stroke-width="2.0" stroke-dasharray="none" opacity="1.0" fill="#ffffff"/><g id="ProcessOnG1163" transform="matrix(1.0,0.0,0.0,1.0,10.0,2.875)"><text id="ProcessOnText1164" fill="#000000" font-size="13" x="17.0" y="13.325" font-family="微软雅黑" font-weight="normal" font-style="normal" text-decoration="none" family="微软雅黑" text-anchor="middle" size="13">Wout</text></g></g><g id="ProcessOnG1165" transform="matrix(1.0,0.0,0.0,1.0,857.0,249.5)" opacity="1.0"><path id="ProcessOnPath1166" d="M0.0 0.0L56.0 0.0L56.0 22.0L0.0 22.0Z" stroke="#323232" stroke-width="2.0" stroke-dasharray="none" opacity="1.0" fill="#ffffff"/><g id="ProcessOnG1167" transform="matrix(1.0,0.0,0.0,1.0,10.0,2.875)"><text id="ProcessOnText1168" fill="#000000" font-size="13" x="17.0" y="13.325" font-family="微软雅黑" font-weight="normal" font-style="normal" text-decoration="none" family="微软雅黑" text-anchor="middle" size="13">Win</text></g></g><g id="ProcessOnG1169" transform="matrix(1.0,0.0,0.0,1.0,857.0,421.0)" opacity="1.0"><path id="ProcessOnPath1170" d="M0.0 0.0L56.0 0.0L56.0 22.0L0.0 22.0Z" stroke="#323232" stroke-width="2.0" stroke-dasharray="none" opacity="1.0" fill="#ffffff"/><g id="ProcessOnG1171" transform="matrix(1.0,0.0,0.0,1.0,10.0,2.875)"><text id="ProcessOnText1172" fill="#000000" font-size="13" x="17.0" y="13.325" font-family="微软雅黑" font-weight="normal" font-style="normal" text-decoration="none" family="微软雅黑" text-anchor="middle" size="13">Rout</text></g></g><g id="ProcessOnG1173" transform="matrix(1.0,0.0,0.0,1.0,801.0,421.0)" opacity="1.0"><path id="ProcessOnPath1174" d="M0.0 0.0L56.0 0.0L56.0 22.0L0.0 22.0Z" stroke="#323232" stroke-width="2.0" stroke-dasharray="none" opacity="1.0" fill="#ffffff"/><g id="ProcessOnG1175" transform="matrix(1.0,0.0,0.0,1.0,10.0,2.875)"><text id="ProcessOnText1176" fill="#000000" font-size="13" x="17.0" y="13.325" font-family="微软雅黑" font-weight="normal" font-style="normal" text-decoration="none" family="微软雅黑" text-anchor="middle" size="13">Rin</text></g></g></g></g></svg>